<?xml version="1.0" encoding="UTF-8"?>
<!-- Generator: Adobe Illustrator 24.0.3, SVG Export Plug-In . SVG Version: 6.00 Build 0)  -->
<svg version="1.1" id="SBAB" xmlns="http://www.w3.org/2000/svg" xmlns:xlink="http://www.w3.org/1999/xlink" x="0px" y="0px" viewBox="0 0 113.3858 35.2913" style="enable-background:new 0 0 113.3858 35.2913;" xml:space="preserve">
<style type="text/css">
	.st0{fill:#FF620F;}
</style>
<path d="M11.7243,33.0806c6.7503,0,10.7966-3.2962,10.7966-8.6057c0-3.9278-2.8817-6.6319-8.4478-8.132l-2.7041-0.7303  c-4.0068-1.0658-5.2503-2.4278-5.2503-4.3226c0-2.4475,2.2501-3.7502,5.1713-3.7502c3.1975,0,5.0726,1.6185,5.2108,4.2436h5.2503  c-0.0592-5.27-4.3621-8.6847-10.4611-8.6847c-5.8227,0-10.4216,3.1581-10.4216,8.4083c0,3.9278,2.4475,6.8096,7.3425,8.0925  l2.7238,0.7106c4.6187,1.204,6.3161,2.5462,6.3161,4.5397c0,2.5659-2.4672,3.7897-5.5266,3.7897  c-3.612,0-6.2766-1.8751-6.474-5.0331H0C0.2171,29.4883,4.8555,33.0806,11.7243,33.0806z"/>
<polygon class="st0" points="108.6093,23.7249 113.3858,1.2237 107.5434,0 102.7669,22.4814 "/>
<path class="st0" d="M108.0763,35.2913c2.1514,0,3.9278-1.6382,3.9278-3.8489s-1.7567-3.8686-3.9278-3.8686  s-3.9081,1.658-3.9081,3.8686S105.9249,35.2913,108.0763,35.2913z"/>
<path d="M92.8387,17.8233v-0.6711c3.4146-0.8093,5.0529-3.0988,5.0529-6.1385c0-4.1449-2.9409-7.3622-10.2637-7.3622H77.0287V32.528  h11.6059c7.7767,0,10.5992-3.5331,10.5992-7.8359C99.2338,20.9813,97.0824,18.6128,92.8387,17.8233z M82.1013,8.0925h5.8621  c3.1186,0,4.816,1.1843,4.816,3.6712s-1.6975,3.7897-4.816,3.7897h-5.8621V8.0925z M88.8517,28.087h-6.7503v-8.132h6.7503  c3.5133,0,5.27,1.5396,5.27,4.0265S92.365,28.087,88.8517,28.087z"/>
<path d="M41.3191,17.8233v-0.6711c3.4146-0.8093,5.0529-3.0988,5.0529-6.1385c0-4.1449-2.9409-7.3622-10.2637-7.3622H25.509V32.528  h11.6059c7.7767,0,10.5992-3.5331,10.5992-7.8359C47.7141,20.9813,45.5627,18.6128,41.3191,17.8233z M30.7001,8.0925h5.8621  c3.1186,0,4.816,1.1843,4.816,3.6712s-1.6975,3.7897-4.816,3.7897h-5.8621V8.0925z M37.4504,28.087h-6.7503v-8.132h6.7503  c3.5133,0,5.27,1.5396,5.27,4.0265S40.9638,28.087,37.4504,28.087z"/>
<path d="M69.6034,32.528h5.6845L64.8466,3.6515h-6.5135L47.8128,32.528h5.4082l2.5961-7.382H67.04L69.6034,32.528z M57.2957,20.9419  l3.7415-10.6387h0.8487l3.6943,10.6387H57.2957z"/>
</svg>